# xmcd
#
# Track frame offsets: 
#        150
#        14797
#        30037
#        44305
#        57662
#        72307
#        87260
#        104695
#        135920
#        166448
#        182513
#        194005
#        218413
#        232806
#        255433
#        268976
#        282446
#        290896
#        304666
#        314886
#        330789
#
# Disc length: 4673 seconds
#
# Revision: 2
# Processed by: cddbd v1.5.2PL0 Copyright (c) Steve Scherf et al.
# Submitted via: ExactAudioCopy v0.99pb5
#
DISCID=38123f15
DTITLE=Son House - Primo Collection
DYEAR=2004
DGENRE=Blues
TTITLE0=My Black Mama, Pt. 1
TTITLE1=My Black Mama, Pt. 2
TTITLE2=Preachin' The Blues, Pt. 1
TTITLE3=Preachin' The Blues, Pt. 2
TTITLE4=Dry Spell Blues, Pt. 1
TTITLE5=Dry Spell Blues, Pt. 2
TTITLE6=Levee Camp Blues
TTITLE7=Government Fleet Blues
TTITLE8=Walking Blues
TTITLE9=Shetland Pony Blues
TTITLE10=Camp Hollers
TTITLE11=Delta Blues
TTITLE12=Special Rider Blues - 2
TTITLE13=Low Down Dirty Dog Blues
TTITLE14=Depot Blues
TTITLE15=American Defense
TTITLE16=Am I Right Or Wrong?
TTITLE17=Walking Blues
TTITLE18=Country Farm Blues
TTITLE19=The Jinx Blues, Pt. 1
TTITLE20=The Jinx Blues, Pt. 2
EXTD=
EXTT0=
EXTT1=
EXTT2=
EXTT3=
EXTT4=
EXTT5=
EXTT6=
EXTT7=
EXTT8=
EXTT9=
EXTT10=
EXTT11=
EXTT12=
EXTT13=
EXTT14=
EXTT15=
EXTT16=
EXTT17=
EXTT18=
EXTT19=
EXTT20=
PLAYORDER=
